<mxfile host="app.diagrams.net" modified="2021-01-30T08:19:47.794Z" agent="5.0 (Windows)" etag="tIVevnCWd0ci0JV5X_TL" version="14.2.7" type="github">
  <diagram id="kgpKYQtTHZ0yAKxKKP6v" name="Page-1">
    <mxGraphModel dx="782" dy="451" grid="1" gridSize="10" guides="1" tooltips="1" connect="1" arrows="1" fold="1" page="1" pageScale="1" pageWidth="850" pageHeight="1100" math="0" shadow="0">
      <root>
        <mxCell id="0" />
        <mxCell id="1" parent="0" />
        <mxCell id="3nuBFxr9cyL0pnOWT2aG-1" value="Student" style="shape=umlLifeline;perimeter=lifelinePerimeter;container=1;collapsible=0;recursiveResize=0;rounded=0;shadow=0;strokeWidth=1;" parent="1" vertex="1">
          <mxGeometry x="120" y="80" width="100" height="400" as="geometry" />
        </mxCell>
        <mxCell id="3nuBFxr9cyL0pnOWT2aG-2" value="" style="points=[];perimeter=orthogonalPerimeter;rounded=0;shadow=0;strokeWidth=1;" parent="3nuBFxr9cyL0pnOWT2aG-1" vertex="1">
          <mxGeometry x="40" y="70" width="10" height="330" as="geometry" />
        </mxCell>
        <mxCell id="3nuBFxr9cyL0pnOWT2aG-5" value="Online&#xa;Course Software" style="shape=umlLifeline;perimeter=lifelinePerimeter;container=1;collapsible=0;recursiveResize=0;rounded=0;shadow=0;strokeWidth=1;" parent="1" vertex="1">
          <mxGeometry x="300" y="80" width="100" height="300" as="geometry" />
        </mxCell>
        <mxCell id="3nuBFxr9cyL0pnOWT2aG-6" value="" style="points=[];perimeter=orthogonalPerimeter;rounded=0;shadow=0;strokeWidth=1;" parent="3nuBFxr9cyL0pnOWT2aG-5" vertex="1">
          <mxGeometry x="45" y="80" width="10" height="160" as="geometry" />
        </mxCell>
        <mxCell id="3nuBFxr9cyL0pnOWT2aG-8" value="login" style="verticalAlign=bottom;endArrow=block;entryX=0;entryY=0;shadow=0;strokeWidth=1;" parent="1" source="3nuBFxr9cyL0pnOWT2aG-2" target="3nuBFxr9cyL0pnOWT2aG-6" edge="1">
          <mxGeometry relative="1" as="geometry">
            <mxPoint x="275" y="160" as="sourcePoint" />
          </mxGeometry>
        </mxCell>
        <mxCell id="3nuBFxr9cyL0pnOWT2aG-9" value="show courses detail" style="verticalAlign=bottom;endArrow=block;entryX=1.1;entryY=0.145;shadow=0;strokeWidth=1;entryDx=0;entryDy=0;entryPerimeter=0;" parent="1" source="3nuBFxr9cyL0pnOWT2aG-6" target="3nuBFxr9cyL0pnOWT2aG-2" edge="1">
          <mxGeometry relative="1" as="geometry">
            <mxPoint x="240" y="200" as="sourcePoint" />
            <mxPoint x="180" y="200" as="targetPoint" />
          </mxGeometry>
        </mxCell>
        <mxCell id="-H-xmfkq9NgvNTP1PRyj-1" value="" style="points=[];perimeter=orthogonalPerimeter;rounded=0;shadow=0;strokeWidth=1;" vertex="1" parent="1">
          <mxGeometry x="345" y="150" width="10" height="330" as="geometry" />
        </mxCell>
        <mxCell id="-H-xmfkq9NgvNTP1PRyj-2" value="Teacher " style="shape=umlLifeline;perimeter=lifelinePerimeter;container=1;collapsible=0;recursiveResize=0;rounded=0;shadow=0;strokeWidth=1;" vertex="1" parent="1">
          <mxGeometry x="470" y="80" width="100" height="300" as="geometry" />
        </mxCell>
        <mxCell id="-H-xmfkq9NgvNTP1PRyj-3" value="" style="points=[];perimeter=orthogonalPerimeter;rounded=0;shadow=0;strokeWidth=1;" vertex="1" parent="-H-xmfkq9NgvNTP1PRyj-2">
          <mxGeometry x="45" y="80" width="10" height="160" as="geometry" />
        </mxCell>
        <mxCell id="-H-xmfkq9NgvNTP1PRyj-4" value="" style="points=[];perimeter=orthogonalPerimeter;rounded=0;shadow=0;strokeWidth=1;" vertex="1" parent="1">
          <mxGeometry x="515" y="160" width="10" height="280" as="geometry" />
        </mxCell>
        <mxCell id="-H-xmfkq9NgvNTP1PRyj-7" value="Teacher " style="shape=umlLifeline;perimeter=lifelinePerimeter;container=1;collapsible=0;recursiveResize=0;rounded=0;shadow=0;strokeWidth=1;" vertex="1" parent="1">
          <mxGeometry x="470" y="80" width="100" height="300" as="geometry" />
        </mxCell>
        <mxCell id="-H-xmfkq9NgvNTP1PRyj-8" value="" style="points=[];perimeter=orthogonalPerimeter;rounded=0;shadow=0;strokeWidth=1;" vertex="1" parent="-H-xmfkq9NgvNTP1PRyj-7">
          <mxGeometry x="45" y="80" width="10" height="160" as="geometry" />
        </mxCell>
        <mxCell id="-H-xmfkq9NgvNTP1PRyj-9" value="" style="points=[];perimeter=orthogonalPerimeter;rounded=0;shadow=0;strokeWidth=1;" vertex="1" parent="1">
          <mxGeometry x="515" y="150" width="10" height="330" as="geometry" />
        </mxCell>
        <mxCell id="-H-xmfkq9NgvNTP1PRyj-10" value="Admin" style="shape=umlLifeline;perimeter=lifelinePerimeter;container=1;collapsible=0;recursiveResize=0;rounded=0;shadow=0;strokeWidth=1;" vertex="1" parent="1">
          <mxGeometry x="643" y="82" width="100" height="300" as="geometry" />
        </mxCell>
        <mxCell id="-H-xmfkq9NgvNTP1PRyj-11" value="" style="points=[];perimeter=orthogonalPerimeter;rounded=0;shadow=0;strokeWidth=1;" vertex="1" parent="-H-xmfkq9NgvNTP1PRyj-10">
          <mxGeometry x="45" y="80" width="10" height="160" as="geometry" />
        </mxCell>
        <mxCell id="-H-xmfkq9NgvNTP1PRyj-12" value="" style="points=[];perimeter=orthogonalPerimeter;rounded=0;shadow=0;strokeWidth=1;" vertex="1" parent="1">
          <mxGeometry x="688" y="150" width="10" height="330" as="geometry" />
        </mxCell>
        <mxCell id="-H-xmfkq9NgvNTP1PRyj-17" value="" style="curved=1;endArrow=classic;html=1;" edge="1" parent="1" target="3nuBFxr9cyL0pnOWT2aG-5">
          <mxGeometry width="50" height="50" relative="1" as="geometry">
            <mxPoint x="356" y="165" as="sourcePoint" />
            <mxPoint x="356" y="193.91999999999996" as="targetPoint" />
            <Array as="points">
              <mxPoint x="380" y="165" />
              <mxPoint x="400" y="165" />
              <mxPoint x="410" y="178" />
              <mxPoint x="400" y="188" />
              <mxPoint x="390" y="188" />
              <mxPoint x="380" y="188" />
            </Array>
          </mxGeometry>
        </mxCell>
        <mxCell id="-H-xmfkq9NgvNTP1PRyj-19" value="verify" style="text;html=1;strokeColor=none;fillColor=none;align=center;verticalAlign=middle;whiteSpace=wrap;rounded=0;" vertex="1" parent="1">
          <mxGeometry x="361" y="147" width="40" height="20" as="geometry" />
        </mxCell>
        <mxCell id="-H-xmfkq9NgvNTP1PRyj-22" value="&#xa;&#xa;" style="verticalAlign=bottom;endArrow=block;shadow=0;strokeWidth=1;" edge="1" parent="1">
          <mxGeometry relative="1" as="geometry">
            <mxPoint x="343" y="282" as="sourcePoint" />
            <mxPoint x="170" y="282" as="targetPoint" />
          </mxGeometry>
        </mxCell>
        <mxCell id="-H-xmfkq9NgvNTP1PRyj-29" value="" style="endArrow=classic;html=1;exitX=1.2;exitY=0.273;exitDx=0;exitDy=0;exitPerimeter=0;" edge="1" parent="1" source="3nuBFxr9cyL0pnOWT2aG-2">
          <mxGeometry width="50" height="50" relative="1" as="geometry">
            <mxPoint x="178" y="240" as="sourcePoint" />
            <mxPoint x="347.5" y="240" as="targetPoint" />
          </mxGeometry>
        </mxCell>
        <mxCell id="-H-xmfkq9NgvNTP1PRyj-30" value="select course" style="text;html=1;strokeColor=none;fillColor=none;align=center;verticalAlign=middle;whiteSpace=wrap;rounded=0;" vertex="1" parent="1">
          <mxGeometry x="210" y="230" width="100" height="10" as="geometry" />
        </mxCell>
        <mxCell id="-H-xmfkq9NgvNTP1PRyj-32" value="show all course content and progess" style="text;html=1;strokeColor=none;fillColor=none;align=center;verticalAlign=middle;whiteSpace=wrap;rounded=0;" vertex="1" parent="1">
          <mxGeometry x="200" y="260" width="140" height="20" as="geometry" />
        </mxCell>
        <mxCell id="-H-xmfkq9NgvNTP1PRyj-33" value="" style="endArrow=classic;html=1;entryX=-0.1;entryY=0.575;entryDx=0;entryDy=0;entryPerimeter=0;" edge="1" parent="1">
          <mxGeometry width="50" height="50" relative="1" as="geometry">
            <mxPoint x="170" y="361" as="sourcePoint" />
            <mxPoint x="344" y="361" as="targetPoint" />
            <Array as="points">
              <mxPoint x="170" y="360" />
            </Array>
          </mxGeometry>
        </mxCell>
        <mxCell id="-H-xmfkq9NgvNTP1PRyj-34" value="submit assignments" style="text;html=1;strokeColor=none;fillColor=none;align=center;verticalAlign=middle;whiteSpace=wrap;rounded=0;" vertex="1" parent="1">
          <mxGeometry x="200" y="340" width="120" height="20" as="geometry" />
        </mxCell>
        <mxCell id="-H-xmfkq9NgvNTP1PRyj-36" value="assignment problems" style="text;html=1;strokeColor=none;fillColor=none;align=center;verticalAlign=middle;whiteSpace=wrap;rounded=0;" vertex="1" parent="1">
          <mxGeometry x="190" y="300" width="140" height="20" as="geometry" />
        </mxCell>
        <mxCell id="-H-xmfkq9NgvNTP1PRyj-38" value="" style="endArrow=classic;html=1;" edge="1" parent="1">
          <mxGeometry width="50" height="50" relative="1" as="geometry">
            <mxPoint x="345" y="320" as="sourcePoint" />
            <mxPoint x="169.5" y="320" as="targetPoint" />
          </mxGeometry>
        </mxCell>
        <mxCell id="-H-xmfkq9NgvNTP1PRyj-40" value="get grades" style="text;html=1;strokeColor=none;fillColor=none;align=center;verticalAlign=middle;whiteSpace=wrap;rounded=0;" vertex="1" parent="1">
          <mxGeometry x="200" y="380" width="120" height="20" as="geometry" />
        </mxCell>
        <mxCell id="-H-xmfkq9NgvNTP1PRyj-41" value="" style="endArrow=classic;html=1;exitX=0.1;exitY=0.897;exitDx=0;exitDy=0;exitPerimeter=0;" edge="1" parent="1">
          <mxGeometry width="50" height="50" relative="1" as="geometry">
            <mxPoint x="346" y="442.03999999999996" as="sourcePoint" />
            <mxPoint x="169.5" y="442.03999999999996" as="targetPoint" />
          </mxGeometry>
        </mxCell>
        <mxCell id="-H-xmfkq9NgvNTP1PRyj-42" value="get certificate of complition" style="text;html=1;strokeColor=none;fillColor=none;align=center;verticalAlign=middle;whiteSpace=wrap;rounded=0;" vertex="1" parent="1">
          <mxGeometry x="180" y="420" width="150" height="20" as="geometry" />
        </mxCell>
        <mxCell id="-H-xmfkq9NgvNTP1PRyj-44" value="" style="endArrow=classic;html=1;exitX=1;exitY=0.772;exitDx=0;exitDy=0;exitPerimeter=0;" edge="1" parent="1">
          <mxGeometry width="50" height="50" relative="1" as="geometry">
            <mxPoint x="355" y="399.99999999999994" as="sourcePoint" />
            <mxPoint x="169.5" y="399.99999999999994" as="targetPoint" />
          </mxGeometry>
        </mxCell>
        <mxCell id="-H-xmfkq9NgvNTP1PRyj-47" value="update cousers" style="text;html=1;strokeColor=none;fillColor=none;align=center;verticalAlign=middle;whiteSpace=wrap;rounded=0;" vertex="1" parent="1">
          <mxGeometry x="380" y="200" width="100" height="20" as="geometry" />
        </mxCell>
        <mxCell id="-H-xmfkq9NgvNTP1PRyj-48" value="" style="endArrow=classic;html=1;" edge="1" parent="1">
          <mxGeometry width="50" height="50" relative="1" as="geometry">
            <mxPoint x="519.5" y="223" as="sourcePoint" />
            <mxPoint x="349.5" y="223" as="targetPoint" />
          </mxGeometry>
        </mxCell>
        <mxCell id="-H-xmfkq9NgvNTP1PRyj-49" value="" style="endArrow=classic;html=1;exitX=0;exitY=0.506;exitDx=0;exitDy=0;exitPerimeter=0;" edge="1" parent="1">
          <mxGeometry width="50" height="50" relative="1" as="geometry">
            <mxPoint x="515" y="329.98" as="sourcePoint" />
            <mxPoint x="349.5" y="329.98" as="targetPoint" />
          </mxGeometry>
        </mxCell>
        <mxCell id="-H-xmfkq9NgvNTP1PRyj-51" value="update assignment" style="text;html=1;strokeColor=none;fillColor=none;align=center;verticalAlign=middle;whiteSpace=wrap;rounded=0;" vertex="1" parent="1">
          <mxGeometry x="380" y="311" width="130" height="20" as="geometry" />
        </mxCell>
        <mxCell id="-H-xmfkq9NgvNTP1PRyj-52" value="" style="endArrow=classic;html=1;" edge="1" parent="1">
          <mxGeometry width="50" height="50" relative="1" as="geometry">
            <mxPoint x="512" y="400" as="sourcePoint" />
            <mxPoint x="360" y="400" as="targetPoint" />
          </mxGeometry>
        </mxCell>
        <mxCell id="-H-xmfkq9NgvNTP1PRyj-53" value="grade assignment" style="text;html=1;strokeColor=none;fillColor=none;align=center;verticalAlign=middle;whiteSpace=wrap;rounded=0;" vertex="1" parent="1">
          <mxGeometry x="380" y="380" width="110" height="20" as="geometry" />
        </mxCell>
        <mxCell id="-H-xmfkq9NgvNTP1PRyj-54" value="" style="endArrow=classic;html=1;" edge="1" parent="1">
          <mxGeometry width="50" height="50" relative="1" as="geometry">
            <mxPoint x="692.5" y="179" as="sourcePoint" />
            <mxPoint x="169.5" y="179" as="targetPoint" />
          </mxGeometry>
        </mxCell>
        <mxCell id="-H-xmfkq9NgvNTP1PRyj-55" value="manage students" style="text;html=1;strokeColor=none;fillColor=none;align=center;verticalAlign=middle;whiteSpace=wrap;rounded=0;" vertex="1" parent="1">
          <mxGeometry x="550" y="159" width="110" height="20" as="geometry" />
        </mxCell>
        <mxCell id="-H-xmfkq9NgvNTP1PRyj-57" value="" style="endArrow=classic;html=1;" edge="1" parent="1">
          <mxGeometry width="50" height="50" relative="1" as="geometry">
            <mxPoint x="692.5" y="209" as="sourcePoint" />
            <mxPoint x="519.5" y="209" as="targetPoint" />
            <Array as="points">
              <mxPoint x="610" y="209" />
              <mxPoint x="570" y="209" />
            </Array>
          </mxGeometry>
        </mxCell>
        <mxCell id="-H-xmfkq9NgvNTP1PRyj-60" value="manage teachers" style="text;html=1;strokeColor=none;fillColor=none;align=center;verticalAlign=middle;whiteSpace=wrap;rounded=0;" vertex="1" parent="1">
          <mxGeometry x="550" y="190" width="110" height="20" as="geometry" />
        </mxCell>
        <mxCell id="-H-xmfkq9NgvNTP1PRyj-61" value="" style="endArrow=classic;html=1;exitX=0.2;exitY=0.421;exitDx=0;exitDy=0;exitPerimeter=0;" edge="1" parent="1" source="-H-xmfkq9NgvNTP1PRyj-12" target="3nuBFxr9cyL0pnOWT2aG-5">
          <mxGeometry width="50" height="50" relative="1" as="geometry">
            <mxPoint x="370" y="400" as="sourcePoint" />
            <mxPoint x="420" y="350" as="targetPoint" />
            <Array as="points">
              <mxPoint x="530" y="290" />
            </Array>
          </mxGeometry>
        </mxCell>
        <mxCell id="-H-xmfkq9NgvNTP1PRyj-62" value="manage courses" style="text;html=1;strokeColor=none;fillColor=none;align=center;verticalAlign=middle;whiteSpace=wrap;rounded=0;" vertex="1" parent="1">
          <mxGeometry x="550" y="270" width="110" height="20" as="geometry" />
        </mxCell>
        <mxCell id="-H-xmfkq9NgvNTP1PRyj-63" value="" style="curved=1;endArrow=classic;html=1;entryX=1.2;entryY=0.345;entryDx=0;entryDy=0;entryPerimeter=0;" edge="1" parent="1" target="-H-xmfkq9NgvNTP1PRyj-1">
          <mxGeometry width="50" height="50" relative="1" as="geometry">
            <mxPoint x="349.5" y="241" as="sourcePoint" />
            <mxPoint x="349.5" y="253" as="targetPoint" />
            <Array as="points">
              <mxPoint x="400" y="241" />
              <mxPoint x="400" y="264" />
            </Array>
          </mxGeometry>
        </mxCell>
        <mxCell id="-H-xmfkq9NgvNTP1PRyj-64" value="verify selected course" style="text;html=1;strokeColor=none;fillColor=none;align=center;verticalAlign=middle;whiteSpace=wrap;rounded=0;" vertex="1" parent="1">
          <mxGeometry x="392" y="248" width="100" height="20" as="geometry" />
        </mxCell>
      </root>
    </mxGraphModel>
  </diagram>
</mxfile>
